<svg xmlns="http://www.w3.org/2000/svg" xmlns:xlink="http://www.w3.org/1999/xlink" width="559" zoomAndPan="magnify" viewBox="0 0 419.25 297.749991" height="397" preserveAspectRatio="xMidYMid meet" version="1.2"><defs/><g id="509a7564a5"><g style="fill:#f6f4f0;fill-opacity:1;"><g transform="translate(12.234793, 194.465459)"><path style="stroke:none" d="M 140.765625 -10.4375 C 140.765625 -8.15625 141.519531 -6.128906 143.03125 -4.359375 C 144.550781 -2.585938 146.382812 -1.515625 148.53125 -1.140625 L 148.53125 0 L 104.53125 0 L 104.53125 -1.140625 C 106.675781 -1.515625 108.503906 -2.585938 110.015625 -4.359375 C 111.535156 -6.128906 112.296875 -8.15625 112.296875 -10.4375 L 112.296875 -66.390625 C 112.296875 -69.679688 113.117188 -72.273438 114.765625 -74.171875 C 116.410156 -76.066406 118.054688 -77.867188 119.703125 -79.578125 C 121.347656 -81.285156 122.171875 -83.28125 122.171875 -85.5625 C 122.171875 -87.707031 120.9375 -89.347656 118.46875 -90.484375 C 116 -91.628906 112.929688 -92.203125 109.265625 -92.203125 C 103.828125 -92.203125 98.988281 -91.28125 94.75 -89.4375 C 90.519531 -87.601562 87.832031 -86.242188 86.6875 -85.359375 C 89.476562 -81.441406 90.875 -76.003906 90.875 -69.046875 L 90.875 -10.4375 C 90.875 -8.15625 91.628906 -6.128906 93.140625 -4.359375 C 94.660156 -2.585938 96.492188 -1.515625 98.640625 -1.140625 L 98.640625 0 L 54.640625 0 L 54.640625 -1.140625 C 56.785156 -1.515625 58.613281 -2.585938 60.125 -4.359375 C 61.644531 -6.128906 62.40625 -8.15625 62.40625 -10.4375 L 62.40625 -66.390625 C 62.40625 -69.679688 63.226562 -72.273438 64.875 -74.171875 C 66.519531 -76.066406 68.164062 -77.867188 69.8125 -79.578125 C 71.457031 -81.285156 72.28125 -83.28125 72.28125 -85.5625 C 72.28125 -87.707031 71.078125 -89.347656 68.671875 -90.484375 C 66.265625 -91.628906 63.164062 -92.203125 59.375 -92.203125 C 53.5625 -92.203125 47.425781 -90.742188 40.96875 -87.828125 L 40.96875 -10.4375 C 40.96875 -8.15625 41.726562 -6.128906 43.25 -4.359375 C 44.769531 -2.585938 46.601562 -1.515625 48.75 -1.140625 L 48.75 0 L 4.75 0 L 4.75 -1.140625 C 6.894531 -1.515625 8.722656 -2.585938 10.234375 -4.359375 C 11.753906 -6.128906 12.515625 -8.15625 12.515625 -10.4375 L 12.515625 -77.96875 C 12.515625 -80.375 11.753906 -82.425781 10.234375 -84.125 C 8.722656 -85.832031 6.894531 -86.878906 4.75 -87.265625 L 4.75 -88.40625 L 37.1875 -93.140625 C 37.3125 -93.140625 37.40625 -93.140625 37.46875 -93.140625 C 37.53125 -93.140625 37.625 -93.140625 37.75 -93.140625 C 39.894531 -93.140625 40.96875 -92.066406 40.96875 -89.921875 L 40.96875 -89.15625 C 44.257812 -90.800781 47.988281 -92.160156 52.15625 -93.234375 C 56.332031 -94.316406 60.570312 -94.921875 64.875 -95.046875 C 69.175781 -95.171875 73.191406 -94.566406 76.921875 -93.234375 C 80.648438 -91.910156 83.71875 -89.601562 86.125 -86.3125 C 90.675781 -89.351562 95.609375 -91.566406 100.921875 -92.953125 C 106.234375 -94.347656 110.976562 -95.046875 115.15625 -95.046875 C 119.707031 -95.046875 123.910156 -94.222656 127.765625 -92.578125 C 131.617188 -90.929688 134.75 -88.242188 137.15625 -84.515625 C 139.5625 -80.785156 140.765625 -75.628906 140.765625 -69.046875 Z M 140.765625 -10.4375 "/></g></g><g style="fill:#f6f4f0;fill-opacity:1;"><g transform="translate(145.213687, 194.465459)"><path style="stroke:none" d="M 78.15625 -25.609375 C 78.539062 -20.679688 77.085938 -16.191406 73.796875 -12.140625 C 70.503906 -8.097656 66.078125 -4.90625 60.515625 -2.5625 C 54.953125 -0.21875 48.878906 0.953125 42.296875 0.953125 C 35.847656 0.953125 29.9375 -0.117188 24.5625 -2.265625 C 19.1875 -4.421875 14.851562 -7.363281 11.5625 -11.09375 C 8.28125 -14.820312 6.640625 -19.03125 6.640625 -23.71875 C 6.640625 -27.757812 8.09375 -31.203125 11 -34.046875 C 13.90625 -36.890625 17.320312 -38.3125 21.25 -38.3125 C 25.289062 -38.3125 28.765625 -36.890625 31.671875 -34.046875 C 34.585938 -31.203125 36.046875 -27.757812 36.046875 -23.71875 C 36.046875 -20.300781 35.316406 -17.675781 33.859375 -15.84375 C 32.410156 -14.007812 30.925781 -12.488281 29.40625 -11.28125 C 27.882812 -10.082031 27.125 -8.660156 27.125 -7.015625 C 27.125 -5.628906 27.816406 -4.300781 29.203125 -3.03125 C 30.597656 -1.769531 32.242188 -1.015625 34.140625 -0.765625 C 35.410156 -0.628906 36.613281 -0.5 37.75 -0.375 C 38.882812 -0.25 40.398438 -0.1875 42.296875 -0.1875 C 45.710938 -0.1875 48.625 -1.382812 51.03125 -3.78125 C 53.4375 -6.1875 54.640625 -9.097656 54.640625 -12.515625 C 54.640625 -15.679688 53.46875 -18.75 51.125 -21.71875 C 48.78125 -24.6875 45.804688 -27.65625 42.203125 -30.625 C 38.597656 -33.601562 34.738281 -36.671875 30.625 -39.828125 C 26.519531 -42.992188 22.664062 -46.253906 19.0625 -49.609375 C 15.457031 -52.960938 12.484375 -56.566406 10.140625 -60.421875 C 7.804688 -64.273438 6.640625 -68.414062 6.640625 -72.84375 C 6.640625 -77.90625 8.347656 -82.078125 11.765625 -85.359375 C 15.179688 -88.648438 19.351562 -91.085938 24.28125 -92.671875 C 29.21875 -94.253906 34.023438 -95.046875 38.703125 -95.046875 C 43.253906 -95.046875 47.078125 -94.601562 50.171875 -93.71875 C 53.273438 -92.832031 56.054688 -92.007812 58.515625 -91.25 C 60.984375 -90.488281 63.546875 -90.171875 66.203125 -90.296875 C 67.210938 -90.421875 68.128906 -90.671875 68.953125 -91.046875 C 69.773438 -91.429688 70.441406 -91.878906 70.953125 -92.390625 L 71.890625 -92.390625 L 71.890625 -61.65625 C 71.890625 -61.65625 71.796875 -61.65625 71.609375 -61.65625 C 71.421875 -61.65625 71.203125 -61.65625 70.953125 -61.65625 C 70.191406 -65.445312 68.925781 -69.679688 67.15625 -74.359375 C 65.382812 -79.035156 62.757812 -83.207031 59.28125 -86.875 C 55.800781 -90.550781 50.960938 -92.769531 44.765625 -93.53125 C 41.484375 -94.03125 38.640625 -93.394531 36.234375 -91.625 C 33.828125 -89.851562 32.5 -86.945312 32.25 -82.90625 C 32 -78.851562 33.296875 -75.117188 36.140625 -71.703125 C 38.984375 -68.285156 42.617188 -64.898438 47.046875 -61.546875 C 51.472656 -58.203125 55.992188 -54.757812 60.609375 -51.21875 C 65.222656 -47.675781 69.175781 -43.816406 72.46875 -39.640625 C 75.757812 -35.472656 77.65625 -30.796875 78.15625 -25.609375 Z M 78.15625 -25.609375 "/></g></g><g style="fill:#f6f4f0;fill-opacity:1;"><g transform="translate(209.900549, 194.465459)"><path style="stroke:none" d="M 66.015625 -12.140625 C 69.679688 -12.140625 73.191406 -13.023438 76.546875 -14.796875 C 79.898438 -16.566406 82.90625 -19.03125 85.5625 -22.1875 L 86.5 -21.625 C 82.707031 -14.789062 77.585938 -9.316406 71.140625 -5.203125 C 64.691406 -1.097656 57.609375 0.953125 49.890625 0.953125 C 41.921875 0.953125 34.679688 -1.195312 28.171875 -5.5 C 21.660156 -9.800781 16.441406 -15.585938 12.515625 -22.859375 C 8.597656 -30.128906 6.640625 -38.191406 6.640625 -47.046875 C 6.640625 -55.898438 8.597656 -63.960938 12.515625 -71.234375 C 16.441406 -78.503906 21.660156 -84.289062 28.171875 -88.59375 C 34.679688 -92.894531 41.921875 -95.046875 49.890625 -95.046875 C 56.847656 -95.046875 63.078125 -93.398438 68.578125 -90.109375 C 74.078125 -86.816406 78.691406 -82.359375 82.421875 -76.734375 C 86.148438 -71.109375 88.710938 -64.691406 90.109375 -57.484375 L 35.09375 -57.484375 C 35.09375 -49.128906 36.484375 -41.503906 39.265625 -34.609375 C 42.046875 -27.722656 45.773438 -22.253906 50.453125 -18.203125 C 55.140625 -14.160156 60.328125 -12.140625 66.015625 -12.140625 Z M 49.890625 -93.90625 C 47.234375 -93.90625 45.050781 -92.921875 43.34375 -90.953125 C 41.632812 -88.992188 40.210938 -86.46875 39.078125 -83.375 C 37.941406 -80.28125 37.117188 -77.085938 36.609375 -73.796875 C 36.109375 -70.503906 35.726562 -67.46875 35.46875 -64.6875 C 35.21875 -61.90625 35.09375 -59.882812 35.09375 -58.625 L 64.3125 -58.625 C 63.175781 -82.144531 58.367188 -93.90625 49.890625 -93.90625 Z M 49.890625 -93.90625 "/></g></g><g style="fill:#f6f4f0;fill-opacity:1;"><g transform="translate(284.451838, 194.465459)"><path style="stroke:none" d="M 98.078125 -50.84375 C 98.960938 -42.113281 98.078125 -33.953125 95.421875 -26.359375 C 92.765625 -18.773438 88.8125 -12.546875 83.5625 -7.671875 C 78.3125 -2.804688 72.210938 0.00390625 65.265625 0.765625 C 60.960938 1.265625 56.753906 0.789062 52.640625 -0.65625 C 48.535156 -2.113281 44.644531 -4.234375 40.96875 -7.015625 L 40.96875 -3.984375 C 40.96875 -2.847656 40.585938 -1.898438 39.828125 -1.140625 C 39.078125 -0.378906 38.128906 0 36.984375 0 L 4.75 0 L 4.75 -1.140625 C 6.894531 -1.515625 8.722656 -2.585938 10.234375 -4.359375 C 11.753906 -6.128906 12.515625 -8.15625 12.515625 -10.4375 L 12.515625 -117.609375 C 12.515625 -119.890625 11.753906 -121.914062 10.234375 -123.6875 C 8.722656 -125.457031 6.894531 -126.53125 4.75 -126.90625 L 4.75 -128.046875 L 37.1875 -132.796875 C 37.3125 -132.796875 37.40625 -132.796875 37.46875 -132.796875 C 37.53125 -132.796875 37.625 -132.796875 37.75 -132.796875 C 39.894531 -132.796875 40.96875 -131.65625 40.96875 -129.375 L 40.96875 -91.0625 C 45.019531 -93.207031 49.578125 -94.535156 54.640625 -95.046875 C 61.585938 -95.796875 68.222656 -94.273438 74.546875 -90.484375 C 80.867188 -86.691406 86.148438 -81.347656 90.390625 -74.453125 C 94.628906 -67.566406 97.191406 -59.695312 98.078125 -50.84375 Z M 47.421875 -7.015625 C 51.597656 -7.015625 55.394531 -8.910156 58.8125 -12.703125 C 62.226562 -16.503906 64.945312 -21.597656 66.96875 -27.984375 C 68.988281 -34.367188 70 -41.421875 70 -49.140625 C 70 -56.972656 68.988281 -64.050781 66.96875 -70.375 C 64.945312 -76.695312 62.226562 -81.753906 58.8125 -85.546875 C 55.394531 -89.347656 51.597656 -91.25 47.421875 -91.25 C 45.398438 -91.25 43.25 -90.742188 40.96875 -89.734375 L 40.96875 -8.53125 C 43.25 -7.519531 45.398438 -7.015625 47.421875 -7.015625 Z M 47.421875 -7.015625 "/></g></g><g style="fill:#f6f4f0;fill-opacity:1;"><g transform="translate(369.24689, 194.465459)"><path style="stroke:none" d="M 18.40625 0.953125 C 15.113281 0.953125 12.328125 -0.179688 10.046875 -2.453125 C 7.773438 -4.734375 6.640625 -7.519531 6.640625 -10.8125 C 6.640625 -14.101562 7.773438 -16.914062 10.046875 -19.25 C 12.328125 -21.59375 15.113281 -22.765625 18.40625 -22.765625 C 21.6875 -22.765625 24.5 -21.59375 26.84375 -19.25 C 29.1875 -16.914062 30.359375 -14.101562 30.359375 -10.8125 C 30.359375 -7.519531 29.1875 -4.734375 26.84375 -2.453125 C 24.5 -0.179688 21.6875 0.953125 18.40625 0.953125 Z M 18.40625 0.953125 "/></g></g></g></svg>