<svg xmlns="http://www.w3.org/2000/svg" xmlns:xlink="http://www.w3.org/1999/xlink" width="500" zoomAndPan="magnify" viewBox="0 0 375 374.999991" height="500" preserveAspectRatio="xMidYMid meet" version="1.0"><defs><clipPath id="0a4da4ed4c"><path d="M 115 37.5 L 306 37.5 L 306 242 L 115 242 Z M 115 37.5 " clip-rule="nonzero"/></clipPath><clipPath id="f4bdf24f8f"><path d="M 68.625 248 L 290 248 L 290 337.5 L 68.625 337.5 Z M 68.625 248 " clip-rule="nonzero"/></clipPath></defs><g clip-path="url(#0a4da4ed4c)"><path fill="#100f0d" d="M 212.300781 194.5625 C 210.199219 207.390625 198.015625 220.867188 177.894531 232.664062 C 155.273438 219.394531 142.652344 203.875 143.1875 189.886719 C 143.511719 181.480469 148.488281 176.222656 152.65625 174.269531 C 160.144531 170.753906 166.980469 173.773438 171.390625 176.929688 C 171.398438 176.933594 171.40625 176.933594 171.40625 176.941406 C 171.488281 182.664062 173.78125 188.203125 177.992188 192.710938 C 178.796875 193.574219 179.898438 194.023438 181.019531 194.023438 C 181.691406 194.023438 182.367188 193.863281 182.988281 193.527344 L 209.117188 179.375 C 212.0625 183.492188 213.222656 188.917969 212.300781 194.5625 Z M 180.742188 120.195312 C 183.636719 116.980469 188.03125 115.660156 192.234375 116.753906 C 199.035156 118.527344 203.910156 120.886719 205.597656 123.226562 C 208.0625 126.640625 195.1875 145.867188 181.832031 156.652344 C 177.75 159.949219 174.769531 163.90625 173.0625 168.179688 C 169.542969 166.1875 165.933594 164.980469 162.332031 164.570312 C 161.234375 160.886719 158.980469 154.460938 155.25 148.519531 Z M 304.539062 89.90625 C 302.917969 88.292969 300.300781 88.292969 298.679688 89.90625 L 257.789062 130.804688 L 233.816406 155.839844 C 232.839844 156.855469 231.722656 157.710938 230.496094 158.375 L 182.097656 184.589844 C 180.316406 181.839844 179.496094 178.804688 179.714844 175.667969 C 180.035156 171.113281 182.636719 166.652344 187.035156 163.097656 C 195.050781 156.621094 220.742188 130.050781 212.3125 118.375 C 209.390625 114.332031 203.335938 111.089844 194.320312 108.742188 C 187.113281 106.859375 179.554688 109.128906 174.585938 114.652344 L 146.921875 145.390625 C 145.605469 146.855469 145.5 149.039062 146.671875 150.621094 C 150.203125 155.398438 152.523438 161.21875 153.8125 165.113281 C 152.234375 165.503906 150.667969 166.050781 149.140625 166.769531 C 145.472656 168.488281 142.335938 171.210938 139.945312 174.578125 L 125.457031 149.054688 C 123.867188 146.253906 123.679688 142.820312 124.957031 139.867188 C 130.289062 127.515625 148.703125 97.117188 156.371094 84.621094 C 157.992188 81.980469 160.679688 80.253906 163.746094 79.875 C 181.375 77.707031 228.898438 72.378906 239.308594 71.300781 C 240.257812 71.203125 241.140625 70.785156 241.808594 70.109375 L 266.941406 44.980469 C 268.558594 43.363281 268.558594 40.742188 266.941406 39.125 C 265.328125 37.507812 262.703125 37.507812 261.085938 39.125 L 236.992188 63.21875 C 224.175781 64.574219 179.675781 69.570312 162.730469 71.65625 C 157.148438 72.34375 152.257812 75.488281 149.316406 80.285156 C 141.550781 92.933594 122.898438 123.734375 117.351562 136.585938 C 115.050781 141.90625 115.390625 148.09375 118.253906 153.140625 L 135.710938 183.902344 C 135.265625 185.734375 134.988281 187.628906 134.914062 189.570312 C 134.519531 199.894531 139.292969 220.289062 175.640625 240.921875 C 175.847656 241.058594 176.070312 241.179688 176.304688 241.273438 C 176.816406 241.488281 177.355469 241.589844 177.886719 241.589844 C 178.210938 241.589844 178.53125 241.550781 178.839844 241.480469 C 179.273438 241.378906 179.691406 241.207031 180.082031 240.964844 C 180.085938 240.964844 180.085938 240.960938 180.089844 240.957031 C 210.167969 223.902344 218.652344 207.046875 220.472656 195.902344 C 221.691406 188.441406 220.222656 181.179688 216.433594 175.410156 L 234.441406 165.65625 C 236.421875 164.585938 238.222656 163.210938 239.796875 161.570312 L 263.707031 136.59375 L 304.539062 95.765625 C 306.15625 94.144531 306.15625 91.527344 304.539062 89.90625 " fill-opacity="1" fill-rule="nonzero"/></g><g clip-path="url(#f4bdf24f8f)"><path fill="#100f0d" d="M 204.511719 275.648438 C 203.78125 275.878906 203.164062 276.304688 202.691406 276.835938 C 201.253906 274.910156 199.515625 273.210938 197.507812 271.8125 L 215.011719 264.5625 C 223.003906 261.253906 232.136719 261.179688 240.152344 264.214844 Z M 187.027344 258.878906 C 194.132812 256.125 201.929688 255.878906 209.121094 258.035156 L 187.320312 267.066406 L 176.878906 262.8125 Z M 251.519531 260.617188 C 251.34375 260.480469 251.148438 260.351562 250.945312 260.242188 L 247.707031 258.539062 C 239.570312 254.25 230.097656 252.8125 221.054688 254.300781 C 209.988281 247.625 196.195312 246.441406 184.035156 251.15625 L 165.703125 258.257812 L 158.414062 255.285156 C 146.710938 250.515625 133.609375 249.988281 121.519531 253.8125 L 101.683594 260.074219 L 73.039062 260.074219 C 70.75 260.074219 68.894531 261.925781 68.894531 264.214844 C 68.894531 266.503906 70.75 268.355469 73.039062 268.355469 L 102.324219 268.355469 C 102.75 268.355469 103.167969 268.289062 103.570312 268.164062 L 124.015625 261.707031 C 134.261719 258.46875 145.367188 258.914062 155.289062 262.957031 L 189.988281 277.101562 C 195.382812 279.296875 198.867188 284.480469 198.867188 290.304688 C 198.867188 292.085938 198.160156 293.742188 196.878906 294.972656 C 195.597656 296.203125 193.921875 296.839844 192.136719 296.769531 L 133.066406 294.410156 C 130.777344 294.378906 128.851562 296.097656 128.761719 298.382812 C 128.667969 300.667969 130.445312 302.59375 132.734375 302.6875 L 191.804688 305.046875 C 192.007812 305.054688 192.210938 305.058594 192.414062 305.058594 C 196.242188 305.058594 199.839844 303.613281 202.617188 300.945312 C 205.539062 298.140625 207.148438 294.359375 207.148438 290.304688 C 207.148438 288.027344 206.808594 285.8125 206.171875 283.710938 C 206.460938 283.683594 206.753906 283.625 207.042969 283.535156 L 252.414062 268.976562 C 262.910156 265.605469 274.292969 270.019531 279.871094 279.289062 L 187.832031 327.183594 C 184.167969 329.089844 179.917969 329.699219 175.871094 328.910156 L 97.796875 313.617188 C 97.539062 313.570312 97.273438 313.542969 97.003906 313.542969 L 73.039062 313.542969 C 70.75 313.542969 68.894531 315.394531 68.894531 317.683594 C 68.894531 319.972656 70.75 321.824219 73.039062 321.824219 L 96.601562 321.824219 L 174.277344 337.039062 C 175.960938 337.367188 177.660156 337.53125 179.363281 337.53125 C 183.617188 337.53125 187.855469 336.507812 191.660156 334.53125 L 285.960938 285.457031 C 288.707031 284.027344 289.824219 280.714844 288.507812 277.910156 C 281.957031 263.957031 266.289062 256.738281 251.519531 260.617188 " fill-opacity="1" fill-rule="nonzero"/></g></svg>