<svg xmlns="http://www.w3.org/2000/svg" xmlns:xlink="http://www.w3.org/1999/xlink" width="500" zoomAndPan="magnify" viewBox="0 0 375 374.999991" height="500" preserveAspectRatio="xMidYMid meet" version="1.0"><defs><clipPath id="231cbc37b3"><path d="M 38.3125 37.5 L 336.8125 37.5 L 336.8125 337.5 L 38.3125 337.5 Z M 38.3125 37.5 " clip-rule="nonzero"/></clipPath></defs><g clip-path="url(#231cbc37b3)"><path fill="#000000" d="M 327.71875 324.835938 C 327.71875 326.796875 326.121094 328.398438 324.160156 328.398438 L 276.492188 328.398438 C 274.53125 328.398438 272.933594 326.796875 272.933594 324.835938 L 272.933594 241.398438 C 272.933594 237.195312 264.339844 211 260.386719 204.355469 C 259.246094 202.445312 256.632812 199.117188 252.097656 193.402344 C 247.472656 187.566406 241.714844 180.300781 237.140625 173.761719 C 231.046875 165.035156 229.988281 161.707031 229.804688 160.75 C 231.101562 158.410156 233.867188 156.515625 236.628906 156.085938 C 237.878906 155.890625 239.625 155.925781 240.855469 157.191406 L 282.519531 200.003906 C 281.402344 216.261719 294.902344 229.738281 310.65625 228.921875 L 319.175781 237.675781 C 324.472656 243.105469 327.71875 246.707031 327.71875 251.96875 Z M 228.617188 238.574219 C 232.984375 232.089844 241.773438 219.035156 250.203125 205.714844 L 240.105469 192.855469 L 220.582031 216.898438 C 215.492188 223.160156 210.757812 228.019531 206.214844 231.566406 C 201.269531 236.859375 194.234375 240.175781 186.429688 240.175781 C 177.046875 240.175781 168.757812 235.375 163.898438 228.101562 C 160.96875 225.375 157.972656 222.121094 154.882812 218.328125 L 134.875 193.757812 L 124.648438 206.800781 C 132.769531 219.429688 141.15625 231.792969 145.324219 237.9375 C 146.757812 240.054688 147.699219 241.449219 148.125 242.101562 C 151.980469 247.988281 159.964844 270.234375 159.964844 273.972656 L 159.964844 326.085938 C 159.964844 327.3125 161.367188 328.398438 162.96875 328.398438 L 211.410156 328.398438 C 213.015625 328.398438 214.417969 327.3125 214.417969 326.085938 L 214.417969 273.972656 C 214.417969 270.234375 222.402344 247.988281 226.25 242.101562 C 226.625 241.523438 227.453125 240.308594 228.617188 238.574219 Z M 102.742188 241.398438 L 102.742188 324.835938 C 102.742188 326.796875 101.140625 328.398438 99.175781 328.398438 L 51.515625 328.398438 C 49.554688 328.398438 47.953125 326.796875 47.953125 324.835938 L 47.953125 251.96875 C 47.953125 246.707031 51.203125 243.105469 56.492188 237.675781 L 65 228.941406 C 65.132812 228.941406 65.277344 228.953125 65.410156 228.953125 C 80.867188 228.953125 93.242188 215.898438 92.480469 200.703125 L 134.820312 157.191406 C 136.050781 155.925781 137.796875 155.890625 139.039062 156.085938 C 141.808594 156.515625 144.566406 158.410156 145.867188 160.75 C 145.6875 161.707031 144.628906 165.035156 138.53125 173.757812 C 133.957031 180.300781 128.199219 187.566406 123.574219 193.402344 C 119.042969 199.117188 116.425781 202.445312 115.289062 204.355469 C 111.339844 211 102.742188 237.199219 102.742188 241.398438 Z M 47.410156 201.863281 C 47.410156 211.789062 55.480469 219.859375 65.410156 219.859375 C 75.335938 219.859375 83.414062 211.789062 83.414062 201.863281 C 83.414062 191.941406 75.335938 183.871094 65.410156 183.871094 C 55.480469 183.871094 47.410156 191.941406 47.410156 201.863281 Z M 74.847656 160.9375 L 118.488281 160.9375 L 128.304688 150.855469 C 131.371094 147.695312 135.6875 146.363281 140.433594 147.101562 C 146.136719 147.988281 151.449219 151.757812 154.035156 156.738281 C 154.765625 157.945312 155.089844 159.324219 154.996094 160.9375 L 166.824219 160.9375 L 166.824219 132.488281 L 161.929688 132.488281 C 152.277344 132.488281 144.410156 124.628906 144.410156 114.972656 C 144.410156 105.316406 152.277344 97.460938 161.929688 97.460938 L 166.824219 97.460938 L 166.824219 69.007812 L 138.359375 69.007812 L 138.359375 73.890625 C 138.359375 83.546875 130.496094 91.402344 120.839844 91.402344 C 111.175781 91.402344 103.308594 83.550781 103.308594 73.890625 L 103.308594 69.007812 L 74.847656 69.007812 Z M 186.429688 195.09375 C 196.363281 195.09375 204.4375 203.167969 204.4375 213.085938 C 204.4375 217.5625 202.789062 221.660156 200.074219 224.8125 C 195.375 228.359375 191.09375 230.066406 187.050781 230.066406 C 187.042969 230.066406 187.039062 230.066406 187.039062 230.066406 C 182.054688 230.066406 176.816406 227.558594 170.972656 222.292969 C 169.363281 219.589844 168.429688 216.445312 168.429688 213.085938 C 168.429688 203.167969 176.507812 195.09375 186.429688 195.09375 Z M 208.851562 160.9375 L 220.671875 160.9375 C 220.585938 159.320312 220.910156 157.941406 221.636719 156.738281 C 224.226562 151.757812 229.539062 147.988281 235.234375 147.101562 C 239.992188 146.359375 244.300781 147.695312 247.375 150.855469 L 257.183594 160.9375 L 300.824219 160.9375 L 300.824219 69.007812 L 267.8125 69.007812 C 265.300781 69.007812 263.265625 66.96875 263.265625 64.460938 L 263.265625 55.023438 C 263.265625 50.382812 259.488281 46.601562 254.839844 46.601562 C 250.191406 46.601562 246.414062 50.382812 246.414062 55.023438 L 246.414062 64.460938 C 246.414062 66.96875 244.375 69.007812 241.863281 69.007812 L 208.851562 69.007812 L 208.851562 102.003906 C 208.851562 104.515625 206.8125 106.546875 204.304688 106.546875 L 194.867188 106.546875 C 190.21875 106.546875 186.4375 110.324219 186.4375 114.972656 C 186.4375 119.617188 190.21875 123.394531 194.867188 123.394531 L 204.304688 123.394531 C 206.8125 123.394531 208.851562 125.433594 208.851562 127.941406 Z M 309.546875 183.871094 C 299.617188 183.871094 291.542969 191.941406 291.542969 201.863281 C 291.542969 211.789062 299.617188 219.859375 309.546875 219.859375 C 319.472656 219.859375 327.546875 211.789062 327.546875 201.863281 C 327.546875 191.941406 319.46875 183.871094 309.546875 183.871094 Z M 325.6875 231.335938 L 320.921875 226.4375 C 330.199219 222.128906 336.644531 212.742188 336.644531 201.863281 C 336.644531 186.929688 324.484375 174.78125 309.546875 174.78125 C 298.929688 174.78125 289.730469 180.910156 285.285156 189.816406 L 266.03125 170.03125 L 305.371094 170.03125 C 307.882812 170.03125 309.917969 167.992188 309.917969 165.484375 L 309.917969 64.460938 C 309.917969 61.945312 307.882812 59.914062 305.371094 59.914062 L 272.359375 59.914062 L 272.359375 55.023438 C 272.359375 45.367188 264.503906 37.511719 254.839844 37.511719 C 245.175781 37.511719 237.316406 45.367188 237.316406 55.023438 L 237.316406 59.914062 L 204.304688 59.914062 C 201.792969 59.914062 199.761719 61.945312 199.761719 64.460938 L 199.761719 97.460938 L 194.867188 97.460938 C 185.207031 97.460938 177.34375 105.316406 177.34375 114.972656 C 177.34375 124.628906 185.207031 132.488281 194.867188 132.488281 L 199.761719 132.488281 L 199.761719 165.484375 C 199.761719 167.992188 201.792969 170.03125 204.304688 170.03125 L 223.960938 170.03125 C 226.222656 174.09375 229.671875 179.121094 234.410156 185.4375 L 213.460938 211.238281 C 212.507812 197.167969 200.753906 186.007812 186.429688 186.007812 C 172.652344 186.007812 161.246094 196.34375 159.558594 209.671875 L 140.574219 186.355469 C 145.671875 179.597656 149.34375 174.289062 151.710938 170.03125 L 171.371094 170.03125 C 173.882812 170.03125 175.921875 167.992188 175.921875 165.484375 L 175.921875 127.941406 C 175.921875 125.433594 173.882812 123.394531 171.371094 123.394531 L 161.933594 123.394531 C 157.289062 123.394531 153.507812 119.617188 153.507812 114.972656 C 153.507812 110.324219 157.289062 106.546875 161.933594 106.546875 L 171.371094 106.546875 C 173.882812 106.546875 175.921875 104.515625 175.921875 102.007812 L 175.921875 64.460938 C 175.921875 61.945312 173.882812 59.914062 171.371094 59.914062 L 133.8125 59.914062 C 131.296875 59.914062 129.265625 61.945312 129.265625 64.460938 L 129.265625 73.890625 C 129.265625 78.53125 125.484375 82.316406 120.839844 82.316406 C 116.1875 82.316406 112.40625 78.53125 112.40625 73.890625 L 112.40625 64.460938 C 112.40625 61.945312 110.375 59.914062 107.859375 59.914062 L 70.300781 59.914062 C 67.792969 59.914062 65.753906 61.945312 65.753906 64.460938 L 65.753906 165.484375 C 65.753906 167.992188 67.792969 170.03125 70.300781 170.03125 L 109.640625 170.03125 L 89.90625 190.304688 C 85.558594 181.136719 76.21875 174.78125 65.410156 174.78125 C 50.464844 174.78125 38.3125 186.933594 38.3125 201.863281 C 38.3125 212.9375 44.988281 222.464844 54.53125 226.664062 L 49.984375 231.335938 C 44.515625 236.9375 38.855469 242.734375 38.855469 251.96875 L 38.855469 324.835938 C 38.855469 331.8125 44.539062 337.488281 51.515625 337.488281 L 99.175781 337.488281 C 106.152344 337.488281 111.835938 331.8125 111.835938 324.835938 L 111.835938 241.519531 C 112.148438 238.816406 116.339844 225.289062 119.886719 216.183594 C 127.101562 227.273438 134.097656 237.59375 137.796875 243.042969 C 139.148438 245.042969 140.128906 246.484375 140.515625 247.078125 C 143.65625 251.867188 150.339844 270.832031 150.875 274.160156 L 150.875 326.085938 C 150.875 332.371094 156.300781 337.488281 162.96875 337.488281 L 211.410156 337.488281 C 218.085938 337.488281 223.511719 332.375 223.511719 326.085938 L 223.511719 274.160156 C 224.042969 270.832031 230.734375 251.867188 233.867188 247.078125 C 234.230469 246.519531 235.03125 245.332031 236.160156 243.648438 C 240.09375 237.808594 247.589844 226.671875 255.222656 214.757812 C 258.867188 223.820312 263.5 238.671875 263.839844 241.515625 L 263.839844 324.835938 C 263.839844 331.8125 269.515625 337.488281 276.492188 337.488281 L 324.160156 337.488281 C 331.136719 337.488281 336.808594 331.8125 336.808594 324.835938 L 336.808594 251.96875 C 336.8125 242.734375 331.15625 236.9375 325.6875 231.335938 Z M 325.6875 231.335938 " fill-opacity="1" fill-rule="evenodd"/></g></svg>