<svg xmlns="http://www.w3.org/2000/svg" xmlns:xlink="http://www.w3.org/1999/xlink" width="500" zoomAndPan="magnify" viewBox="0 0 375 374.999991" height="500" preserveAspectRatio="xMidYMid meet" version="1.0"><defs><clipPath id="d67428e5f7"><path d="M 184 42.5625 L 191 42.5625 L 191 75 L 184 75 Z M 184 42.5625 " clip-rule="nonzero"/></clipPath><clipPath id="b53ae2d5e6"><path d="M 37.5 81 L 337.5 81 L 337.5 332.8125 L 37.5 332.8125 Z M 37.5 81 " clip-rule="nonzero"/></clipPath></defs><g clip-path="url(#d67428e5f7)"><path fill="#100f0d" d="M 187.503906 74.074219 C 189.34375 74.074219 190.828125 72.582031 190.828125 70.742188 L 190.828125 45.902344 C 190.828125 44.0625 189.34375 42.570312 187.503906 42.570312 C 185.660156 42.570312 184.171875 44.0625 184.171875 45.902344 L 184.171875 70.742188 C 184.171875 72.582031 185.660156 74.074219 187.503906 74.074219 " fill-opacity="1" fill-rule="nonzero"/></g><path fill="#100f0d" d="M 149.203125 80.480469 C 149.851562 81.390625 150.875 81.875 151.914062 81.875 C 152.585938 81.875 153.257812 81.675781 153.847656 81.253906 C 155.339844 80.1875 155.691406 78.105469 154.625 76.609375 L 140.222656 56.386719 C 139.152344 54.886719 137.082031 54.539062 135.578125 55.609375 C 134.082031 56.675781 133.734375 58.757812 134.800781 60.257812 L 149.203125 80.480469 " fill-opacity="1" fill-rule="nonzero"/><path fill="#100f0d" d="M 107.417969 98.507812 L 129.578125 109.667969 C 130.0625 109.90625 130.570312 110.023438 131.070312 110.023438 C 132.289062 110.023438 133.464844 109.347656 134.046875 108.1875 C 134.875 106.542969 134.214844 104.539062 132.570312 103.710938 L 110.410156 92.550781 C 108.757812 91.722656 106.765625 92.390625 105.941406 94.03125 C 105.113281 95.675781 105.777344 97.679688 107.417969 98.507812 " fill-opacity="1" fill-rule="nonzero"/><path fill="#100f0d" d="M 221.15625 81.253906 C 221.742188 81.675781 222.417969 81.875 223.085938 81.875 C 224.128906 81.875 225.152344 81.390625 225.804688 80.480469 L 240.203125 60.257812 C 241.269531 58.757812 240.921875 56.675781 239.425781 55.609375 C 237.925781 54.539062 235.851562 54.890625 234.78125 56.386719 L 220.378906 76.609375 C 219.316406 78.105469 219.660156 80.1875 221.15625 81.253906 " fill-opacity="1" fill-rule="nonzero"/><path fill="#100f0d" d="M 240.953125 108.1875 C 241.539062 109.347656 242.710938 110.023438 243.929688 110.023438 C 244.433594 110.023438 244.945312 109.90625 245.421875 109.667969 L 267.585938 98.507812 C 269.226562 97.679688 269.886719 95.675781 269.0625 94.03125 C 268.238281 92.394531 266.234375 91.726562 264.59375 92.550781 L 242.433594 103.710938 C 240.792969 104.539062 240.128906 106.542969 240.953125 108.1875 " fill-opacity="1" fill-rule="nonzero"/><path fill="#100f0d" d="M 94.972656 205.621094 C 95.363281 205.484375 134.1875 192.792969 161.136719 213.144531 C 161.742188 213.59375 162.441406 213.8125 163.140625 213.8125 C 164.152344 213.8125 165.144531 213.355469 165.804688 212.488281 C 166.910156 211.019531 166.613281 208.929688 165.148438 207.820312 C 135.355469 185.324219 94.570312 198.726562 92.847656 199.304688 C 91.105469 199.894531 90.171875 201.78125 90.757812 203.527344 C 91.34375 205.269531 93.230469 206.210938 94.972656 205.621094 " fill-opacity="1" fill-rule="nonzero"/><path fill="#100f0d" d="M 161.136719 253.148438 C 161.742188 253.605469 162.445312 253.824219 163.140625 253.824219 C 164.152344 253.824219 165.144531 253.363281 165.804688 252.496094 C 166.910156 251.027344 166.613281 248.9375 165.148438 247.828125 C 135.355469 225.335938 94.570312 238.734375 92.847656 239.3125 C 91.105469 239.90625 90.171875 241.789062 90.757812 243.535156 C 91.34375 245.277344 93.230469 246.230469 94.972656 245.632812 C 95.363281 245.5 134.1875 232.796875 161.136719 253.148438 " fill-opacity="1" fill-rule="nonzero"/><path fill="#100f0d" d="M 209.199219 212.488281 C 209.855469 213.355469 210.851562 213.8125 211.863281 213.8125 C 212.558594 213.8125 213.265625 213.59375 213.863281 213.144531 C 240.8125 192.792969 279.636719 205.492188 280.027344 205.621094 C 281.777344 206.214844 283.65625 205.269531 284.242188 203.527344 C 284.828125 201.78125 283.894531 199.894531 282.152344 199.304688 C 280.429688 198.726562 239.648438 185.320312 209.855469 207.820312 C 208.386719 208.929688 208.097656 211.019531 209.199219 212.488281 " fill-opacity="1" fill-rule="nonzero"/><path fill="#100f0d" d="M 282.152344 239.3125 C 280.429688 238.734375 239.640625 225.335938 209.855469 247.828125 C 208.386719 248.9375 208.097656 251.027344 209.199219 252.496094 C 209.855469 253.363281 210.851562 253.824219 211.863281 253.824219 C 212.558594 253.824219 213.265625 253.605469 213.863281 253.148438 C 240.8125 232.800781 279.636719 245.5 280.027344 245.632812 C 281.777344 246.230469 283.65625 245.28125 284.242188 243.535156 C 284.828125 241.789062 283.894531 239.90625 282.152344 239.3125 " fill-opacity="1" fill-rule="nonzero"/><g clip-path="url(#b53ae2d5e6)"><path fill="#100f0d" d="M 330.777344 313.511719 C 310.742188 305.714844 233.074219 279.535156 196.816406 326.136719 L 178.183594 326.136719 C 141.9375 279.539062 64.257812 305.714844 44.222656 313.511719 L 44.222656 155.894531 C 46.929688 154.304688 53.203125 151.117188 60.441406 150.746094 L 60.441406 290.328125 C 60.441406 291.390625 60.949219 292.386719 61.804688 293.015625 C 62.65625 293.644531 63.761719 293.832031 64.773438 293.507812 C 65.585938 293.253906 146.777344 268.285156 185.023438 310.949219 C 185.035156 310.960938 185.042969 310.96875 185.054688 310.976562 C 185.074219 311 185.09375 311.015625 185.113281 311.039062 C 185.203125 311.128906 185.296875 311.214844 185.394531 311.296875 C 185.421875 311.316406 185.445312 311.339844 185.472656 311.359375 C 185.71875 311.550781 185.988281 311.703125 186.269531 311.8125 C 186.285156 311.820312 186.296875 311.828125 186.3125 311.835938 C 186.324219 311.84375 186.339844 311.84375 186.355469 311.847656 C 186.527344 311.910156 186.703125 311.960938 186.875 311.992188 C 186.902344 312 186.925781 312.003906 186.953125 312.003906 C 187.132812 312.035156 187.316406 312.054688 187.503906 312.054688 C 187.679688 312.054688 187.859375 312.035156 188.035156 312.007812 C 188.066406 312.003906 188.097656 312 188.128906 311.992188 C 188.296875 311.960938 188.460938 311.914062 188.621094 311.859375 C 188.65625 311.84375 188.691406 311.832031 188.726562 311.816406 C 188.886719 311.753906 189.042969 311.679688 189.195312 311.589844 C 189.214844 311.574219 189.238281 311.558594 189.261719 311.542969 C 189.523438 311.382812 189.765625 311.183594 189.980469 310.949219 C 228.230469 268.285156 309.417969 293.253906 310.226562 293.507812 C 311.246094 293.835938 312.347656 293.644531 313.195312 293.015625 C 314.050781 292.386719 314.558594 291.390625 314.558594 290.328125 L 314.558594 150.628906 C 321.328125 150.394531 327.3125 150.488281 330.777344 150.59375 Z M 67.101562 136.121094 C 76.90625 133.417969 115.859375 123.929688 149.6875 133.261719 C 151.308594 138.511719 154.003906 143.40625 157.664062 147.601562 C 161.863281 152.417969 164.171875 158.878906 164.179688 165.804688 L 164.183594 176.53125 C 164.183594 178.367188 165.675781 179.859375 167.511719 179.859375 L 207.492188 179.859375 C 209.328125 179.859375 210.820312 178.367188 210.820312 176.527344 L 210.820312 165.246094 C 210.820312 158.84375 213.273438 152.417969 217.726562 147.152344 C 217.726562 147.152344 217.726562 147.152344 217.730469 147.152344 C 221.234375 143.007812 223.796875 138.292969 225.347656 133.253906 C 259.167969 123.933594 298.097656 133.417969 307.898438 136.121094 L 307.898438 285.902344 C 290.777344 281.296875 228.183594 267.539062 190.828125 300.714844 L 190.828125 195.21875 L 207.042969 195.21875 C 208.886719 195.21875 210.375 193.726562 210.375 191.886719 C 210.375 190.046875 208.886719 188.554688 207.042969 188.554688 L 167.957031 188.554688 C 166.117188 188.554688 164.628906 190.046875 164.628906 191.886719 C 164.628906 193.726562 166.117188 195.21875 167.957031 195.21875 L 184.171875 195.21875 L 184.171875 300.726562 C 146.824219 267.542969 84.222656 281.296875 67.101562 285.902344 Z M 165.554688 96.957031 C 172.636719 90.617188 181.777344 87.71875 191.3125 88.777344 C 206.566406 90.488281 218.742188 102.839844 220.265625 118.148438 C 220.652344 122.039062 220.371094 125.867188 219.464844 129.523438 C 219.417969 129.664062 219.382812 129.8125 219.355469 129.960938 C 218.125 134.648438 215.867188 139.039062 212.644531 142.84375 C 207.175781 149.3125 204.160156 157.269531 204.160156 165.246094 L 204.160156 173.195312 L 170.839844 173.195312 L 170.835938 165.796875 C 170.832031 157.265625 167.933594 149.246094 162.679688 143.21875 C 159.316406 139.363281 156.929688 134.800781 155.652344 129.910156 C 155.628906 129.820312 155.605469 129.726562 155.582031 129.632812 C 154.917969 127.007812 154.570312 124.292969 154.570312 121.546875 C 154.570312 112.171875 158.574219 103.210938 165.554688 96.957031 Z M 334.28125 144.058594 C 333.894531 144.035156 325.332031 143.597656 314.558594 143.957031 L 314.558594 133.617188 C 314.558594 132.160156 313.617188 130.875 312.230469 130.4375 C 310.316406 129.835938 266.738281 116.328125 226.84375 125.988281 C 227.152344 123.199219 227.175781 120.359375 226.890625 117.488281 C 225.058594 99.070312 210.410156 84.210938 192.054688 82.15625 C 180.777344 80.875 169.503906 84.472656 161.121094 91.988281 C 152.722656 99.503906 147.910156 110.277344 147.910156 121.546875 C 147.910156 123.039062 148.003906 124.523438 148.167969 125.988281 C 108.277344 116.332031 64.679688 129.832031 62.769531 130.4375 C 61.382812 130.875 60.441406 132.160156 60.441406 133.617188 L 60.441406 144.058594 C 48.6875 144.503906 39.398438 151.03125 38.976562 151.328125 C 38.09375 151.953125 37.566406 152.96875 37.566406 154.050781 L 37.566406 318.46875 C 37.566406 319.59375 38.132812 320.640625 39.070312 321.257812 C 40.011719 321.875 41.199219 321.972656 42.222656 321.523438 C 43.164062 321.113281 136.640625 281.085938 173.855469 331.453125 C 174.484375 332.304688 175.472656 332.804688 176.527344 332.804688 L 198.472656 332.804688 C 199.527344 332.804688 200.515625 332.304688 201.144531 331.453125 C 238.359375 281.085938 331.832031 321.113281 332.777344 321.523438 C 333.800781 321.972656 334.988281 321.875 335.929688 321.257812 C 336.867188 320.640625 337.433594 319.59375 337.433594 318.46875 L 337.433594 147.382812 C 337.433594 145.613281 336.046875 144.148438 334.28125 144.058594 " fill-opacity="1" fill-rule="nonzero"/></g></svg>